<svg width="16" height="16" viewBox="0 0 16 16" fill="none" xmlns="http://www.w3.org/2000/svg">
<path fill-rule="evenodd" clip-rule="evenodd" d="M4.89306 0.408281C5.69283 0.371463 5.94783 0.363281 7.98511 0.363281C10.0224 0.363281 10.2774 0.372145 11.0765 0.408281C11.8756 0.444418 12.421 0.571918 12.8983 0.75669C13.3981 0.945554 13.8515 1.24078 14.2265 1.6226C14.6083 1.99692 14.9028 2.44965 15.091 2.9501C15.2765 3.42737 15.4033 3.97283 15.4401 4.77055C15.4769 5.57169 15.4851 5.82669 15.4851 7.86328C15.4851 9.90055 15.4762 10.1556 15.4401 10.9553C15.404 11.7531 15.2765 12.2985 15.091 12.7758C14.9028 13.2763 14.6078 13.7298 14.2265 14.1046C13.8515 14.4865 13.3981 14.781 12.8983 14.9692C12.421 15.1546 11.8756 15.2815 11.0778 15.3183C10.2774 15.3551 10.0224 15.3633 7.98511 15.3633C5.94783 15.3633 5.69283 15.3544 4.89306 15.3183C4.09533 15.2821 3.54988 15.1546 3.07261 14.9692C2.5721 14.781 2.11862 14.486 1.74374 14.1046C1.36218 13.7301 1.06691 13.2768 0.878517 12.7765C0.693744 12.2992 0.566926 11.7537 0.530107 10.956C0.493289 10.1549 0.485107 9.89987 0.485107 7.86328C0.485107 5.82601 0.493971 5.57101 0.530107 4.77192C0.566244 3.97283 0.693744 3.42737 0.878517 2.9501C1.06719 2.4497 1.36269 1.99645 1.74443 1.62192C2.11877 1.24044 2.57179 0.945175 3.07193 0.75669C3.5492 0.571918 4.09465 0.445099 4.89238 0.408281H4.89306ZM11.0158 1.75828C10.2249 1.72214 9.98761 1.71465 7.98511 1.71465C5.98261 1.71465 5.74533 1.72214 4.95443 1.75828C4.22283 1.79169 3.82602 1.91374 3.56147 2.01669C3.2117 2.15305 2.96147 2.31465 2.69897 2.57715C2.45014 2.81923 2.25864 3.11393 2.13852 3.43965C2.03556 3.70419 1.91352 4.10101 1.88011 4.8326C1.84397 5.62351 1.83647 5.86078 1.83647 7.86328C1.83647 9.86578 1.84397 10.1031 1.88011 10.894C1.91352 11.6256 2.03556 12.0224 2.13852 12.2869C2.25852 12.6121 2.45011 12.9074 2.69897 13.1494C2.94102 13.3983 3.23624 13.5899 3.56147 13.7099C3.82602 13.8128 4.22283 13.9349 4.95443 13.9683C5.74533 14.0044 5.98193 14.0119 7.98511 14.0119C9.98829 14.0119 10.2249 14.0044 11.0158 13.9683C11.7474 13.9349 12.1442 13.8128 12.4087 13.7099C12.7585 13.5735 13.0087 13.4119 13.2712 13.1494C13.5201 12.9074 13.7117 12.6121 13.8317 12.2869C13.9347 12.0224 14.0567 11.6256 14.0901 10.894C14.1262 10.1031 14.1337 9.86578 14.1337 7.86328C14.1337 5.86078 14.1262 5.62351 14.0901 4.8326C14.0567 4.10101 13.9347 3.70419 13.8317 3.43965C13.6953 3.08987 13.5337 2.83965 13.2712 2.57715C13.0291 2.32833 12.7345 2.13683 12.4087 2.01669C12.1442 1.91374 11.7474 1.79169 11.0158 1.75828ZM7.02715 10.1753C7.56215 10.398 8.15787 10.4281 8.71256 10.2604C9.26725 10.0926 9.74651 9.73754 10.0685 9.25572C10.3904 8.7739 10.5351 8.19524 10.4779 7.61858C10.4206 7.04192 10.1649 6.50304 9.75443 6.09396C9.49277 5.83247 9.17639 5.63224 8.82806 5.5077C8.47973 5.38316 8.10813 5.33739 7.73999 5.3737C7.37185 5.41001 7.01635 5.52749 6.69906 5.71769C6.38178 5.90788 6.11061 6.16606 5.90509 6.47363C5.69956 6.78121 5.56478 7.13052 5.51046 7.49644C5.45614 7.86235 5.48362 8.23575 5.59093 8.58977C5.69824 8.94379 5.88271 9.26961 6.13105 9.54377C6.3794 9.81794 6.68544 10.0336 7.02715 10.1753ZM5.2592 5.13737C5.61717 4.7794 6.04214 4.49544 6.50986 4.30171C6.97757 4.10798 7.47886 4.00826 7.98511 4.00826C8.49136 4.00826 8.99265 4.10798 9.46036 4.30171C9.92807 4.49544 10.353 4.7794 10.711 5.13737C11.069 5.49534 11.3529 5.92032 11.5467 6.38803C11.7404 6.85574 11.8401 7.35703 11.8401 7.86328C11.8401 8.36953 11.7404 8.87082 11.5467 9.33853C11.3529 9.80624 11.069 10.2312 10.711 10.5892C9.98806 11.3121 9.00752 11.7183 7.98511 11.7183C6.96269 11.7183 5.98215 11.3121 5.2592 10.5892C4.53624 9.86623 4.13009 8.8857 4.13009 7.86328C4.13009 6.84087 4.53624 5.86033 5.2592 5.13737ZM12.6951 4.58237C12.7838 4.49869 12.8548 4.39806 12.904 4.28645C12.9531 4.17483 12.9793 4.05449 12.9811 3.93255C12.9829 3.81062 12.9601 3.68956 12.9143 3.57656C12.8685 3.46356 12.8004 3.3609 12.7142 3.27467C12.6279 3.18844 12.5253 3.12039 12.4123 3.07454C12.2993 3.0287 12.1782 3.00599 12.0563 3.00777C11.9344 3.00955 11.814 3.03577 11.7024 3.08489C11.5908 3.13401 11.4902 3.20503 11.4065 3.29374C11.2437 3.46626 11.1546 3.69541 11.1581 3.93255C11.1615 4.16969 11.2573 4.39615 11.425 4.56386C11.5927 4.73156 11.8191 4.8273 12.0563 4.83076C12.2934 4.83422 12.5226 4.74512 12.6951 4.58237Z" fill="#666666"/>
</svg>
