<svg width="16" height="16" viewBox="0 0 16 16" fill="none" xmlns="http://www.w3.org/2000/svg">
<path fill-rule="evenodd" clip-rule="evenodd" d="M0.485108 1.61646C0.485108 1.2841 0.617139 0.965348 0.852156 0.730331C1.08717 0.495314 1.40592 0.363283 1.73829 0.363283H14.2306C14.3953 0.363014 14.5584 0.395235 14.7107 0.458101C14.8629 0.520967 15.0012 0.613244 15.1178 0.729649C15.2343 0.846053 15.3267 0.984299 15.3898 1.13647C15.4528 1.28864 15.4852 1.45175 15.4851 1.61646V14.1087C15.4853 14.2735 15.453 14.4366 15.39 14.5889C15.3271 14.7411 15.2348 14.8795 15.1183 14.996C15.0018 15.1125 14.8635 15.2049 14.7113 15.268C14.5591 15.331 14.396 15.3634 14.2312 15.3633H1.73829C1.57366 15.3633 1.41065 15.3308 1.25856 15.2678C1.10647 15.2048 0.968292 15.1124 0.851915 14.996C0.735537 14.8796 0.643243 14.7413 0.580305 14.5892C0.517366 14.4371 0.485018 14.274 0.485108 14.1094V1.61646ZM6.42238 6.08237H8.45352V7.10237C8.7467 6.51601 9.4967 5.98828 10.6237 5.98828C12.7844 5.98828 13.2965 7.15624 13.2965 9.29919V13.2687H11.1099V9.78737C11.1099 8.56692 10.8167 7.87828 10.0722 7.87828C9.0392 7.87828 8.60965 8.62078 8.60965 9.78737V13.2687H6.42238V6.08237ZM2.67238 13.1753H4.85965V5.98828H2.67238V13.1746V13.1753ZM5.17261 3.64419C5.17673 3.83147 5.14341 4.01768 5.07459 4.19191C5.00577 4.36613 4.90285 4.52485 4.77186 4.65876C4.64087 4.79267 4.48445 4.89906 4.31178 4.9717C4.13912 5.04433 3.95368 5.08175 3.76636 5.08175C3.57904 5.08175 3.3936 5.04433 3.22093 4.9717C3.04827 4.89906 2.89185 4.79267 2.76086 4.65876C2.62987 4.52485 2.52694 4.36613 2.45813 4.19191C2.38931 4.01768 2.35598 3.83147 2.36011 3.64419C2.3682 3.27659 2.51992 2.92678 2.78276 2.66966C3.0456 2.41254 3.39867 2.26857 3.76636 2.26857C4.13405 2.26857 4.48712 2.41254 4.74996 2.66966C5.0128 2.92678 5.16451 3.27659 5.17261 3.64419V3.64419Z" fill="#023047"/>
</svg>
