<svg width="31" height="10" viewBox="0 0 31 10" fill="none" xmlns="http://www.w3.org/2000/svg">
<path d="M25.1583 0.758279L26.58 0.521317V9.71545H24.2104L25.1583 0.758279ZM28.8549 0.805672L28.0018 9.71545H30.3714V0.521317L28.8549 0.805672ZM20.893 9.71545H23.2626V3.08051H22.2673L20.893 9.71545ZM0.988127 3.50704C0.988127 4.31271 1.31987 6.16102 4.44778 6.39798C4.73213 6.39798 5.86955 6.44537 5.86955 7.10887C5.86955 7.67758 4.73213 7.96193 3.78428 7.96193C2.69426 7.96193 1.88858 7.67758 0.940735 7.44061V9.62067C1.88858 9.85763 3.026 9.99981 4.3056 9.99981C7.00697 9.99981 8.23917 8.48325 8.23917 6.96669C8.23917 5.26056 6.91218 4.17054 4.63735 3.98097C4.3056 3.98097 3.6421 3.93357 3.6421 3.27008C3.6421 2.5118 4.68474 2.5118 5.06388 2.5118C5.72737 2.5118 6.62783 2.70137 7.24393 2.89094L7.95482 3.1279H8.0496V0.995242L7.95482 0.947849C7.19654 0.710887 6.29608 0.426532 4.73213 0.426532L0.988127 3.50704ZM16.1537 5.92406V9.71545H18.5233V6.72973C18.5233 5.54492 18.5233 5.0236 19.9451 4.97621V2.98572C19.9451 2.93833 19.4238 2.93833 19.4238 2.93833L16.1537 5.92406ZM9.04484 9.71545H11.4145V7.15626C12.3623 8.24628 13.4523 9.71545 13.4523 9.71545H15.5376C15.2533 8.7676 13.9263 6.30319 13.9263 6.30319C15.1111 4.83403 15.6324 3.08051 15.6798 3.08051H14.258C14.2106 3.08051 12.3623 4.26532 11.4145 5.40274V0.710887L9.04484 9.71545ZM22.0778 2.36962C22.7413 2.36962 23.2626 1.84831 23.2626 1.18481C23.2626 0.521317 22.7413 0 22.0778 0" fill="#862165"/>
</svg>
