<svg width="19" height="16" viewBox="0 0 19 16" fill="none" xmlns="http://www.w3.org/2000/svg">
<path d="M18.4851 2.14256C17.8065 2.44323 17.0776 2.64639 16.3113 2.73822C17.102 2.26509 17.6935 1.52046 17.9756 0.643248C17.2327 1.0845 16.4197 1.39509 15.5718 1.56152C15.0016 0.952752 14.2464 0.549248 13.4235 0.413658C12.6005 0.278069 11.7558 0.417979 11.0204 0.811669C10.2851 1.20536 9.70034 1.8308 9.35691 2.59089C9.01347 3.35098 8.93058 4.20319 9.12112 5.01521C7.61587 4.93963 6.14333 4.54839 4.79907 3.86688C3.45481 3.18537 2.26887 2.22883 1.31822 1.05932C0.993166 1.62003 0.806261 2.27014 0.806261 2.9625C0.805898 3.58579 0.959387 4.19953 1.25311 4.74926C1.54683 5.299 1.97171 5.76774 2.49004 6.11389C1.88891 6.09476 1.30105 5.93234 0.775381 5.64013V5.68888C0.77532 6.56307 1.07771 7.41035 1.63123 8.08696C2.18476 8.76357 2.95533 9.22784 3.81219 9.40099C3.25455 9.55191 2.6699 9.57414 2.10241 9.466C2.34417 10.2182 2.81509 10.8759 3.44924 11.3472C4.0834 11.8184 4.84904 12.0796 5.63899 12.0941C4.29801 13.1467 2.64191 13.7178 0.937095 13.7153C0.635105 13.7153 0.333371 13.6977 0.0334473 13.6624C1.76393 14.7751 3.77834 15.3656 5.83564 15.3633C12.7999 15.3633 16.6071 9.59521 16.6071 4.59264C16.6071 4.43012 16.603 4.26596 16.5957 4.10344C17.3363 3.56789 17.9755 2.90472 18.4835 2.14499L18.4851 2.14256V2.14256Z" fill="#666666"/>
</svg>
