<svg width="30" height="30" viewBox="0 0 30 30" fill="none" xmlns="http://www.w3.org/2000/svg">
<path d="M0.5 0.5H29.5V29.5H0.5V0.5Z" stroke="#023047"/>
<path d="M14.7352 10.9933H13.2385V13.2383H10.9935V14.735H13.2385V16.98H14.7352V14.735H16.9802V13.2383H14.7352V10.9933Z" fill="#023047"/>
<path d="M13.9867 8C10.6858 8 8 10.6858 8 13.9867C8 17.2877 10.6858 19.9735 13.9867 19.9735C15.315 19.9732 16.605 19.5285 17.6514 18.7103L20.9411 22L21.9993 20.9418L18.7095 17.6521C19.5282 16.6057 19.9732 15.3154 19.9735 13.9867C19.9735 10.6858 17.2877 8 13.9867 8ZM13.9867 18.4768C11.5105 18.4768 9.49669 16.463 9.49669 13.9867C9.49669 11.5105 11.5105 9.49669 13.9867 9.49669C16.463 9.49669 18.4768 11.5105 18.4768 13.9867C18.4768 16.463 16.463 18.4768 13.9867 18.4768Z" fill="#023047"/>
</svg>
